# xmcd
#
# Track frame offsets:
#	150
#	39039
#	71472
#	89609
#	111292
#	158477
#	208042
#
# Disc length: 3072 seconds
#
# Revision: 0
# Processed by: cddbd v1.5.2PL0 Copyright (c) Steve Scherf et al.
# Submitted via: EasyCDDAExtractor 15.3.0.1
#
DISCID=520bfe07
DTITLE=Sounds of the Earth - Seasons
DYEAR=2006
DGENRE=
TTITLE0=Spring
TTITLE1=Summer
TTITLE2=Late summer
TTITLE3=Autumn
TTITLE4=Late autumn
TTITLE5=Winter
TTITLE6=Spring returns
EXTD=
EXTT0=
EXTT1=
EXTT2=
EXTT3=
EXTT4=
EXTT5=
EXTT6=
PLAYORDER=
